<?xml version="1.0" encoding="UTF-8"?>
<svg xmlns="http://www.w3.org/2000/svg" xmlns:xlink="http://www.w3.org/1999/xlink" width="250px" height="150px" viewBox="0 0 250 150" version="1.1">
<g id="surface1">
<path style=" stroke:none;fill-rule:nonzero;fill:rgb(0%,67.45098%,84.313725%);fill-opacity:1;" d="M 18.867188 45.542969 C 18.378906 45.542969 18.257812 45.15625 18.5 44.574219 L 21.054688 39.324219 C 21.300781 38.738281 21.910156 38.351562 22.394531 38.351562 L 65.847656 38.351562 C 66.332031 38.351562 66.457031 38.933594 66.210938 39.515625 L 64.144531 44.574219 C 63.898438 45.15625 63.292969 45.738281 62.925781 45.738281 Z M 18.867188 45.542969 "/>
<path style=" stroke:none;fill-rule:nonzero;fill:rgb(0%,67.45098%,84.313725%);fill-opacity:1;" d="M 0.488281 63.433594 C 0 63.433594 -0.121094 63.042969 0.121094 62.460938 L 2.675781 57.210938 C 2.921875 56.625 3.53125 56.238281 4.015625 56.238281 L 59.519531 56.238281 C 60.003906 56.238281 60.25 56.820312 60.125 57.40625 L 59.152344 62.070312 C 59.03125 62.847656 58.542969 63.238281 58.058594 63.238281 Z M 0.488281 63.433594 "/>
<path style=" stroke:none;fill-rule:nonzero;fill:rgb(0%,67.45098%,84.313725%);fill-opacity:1;" d="M 29.941406 81.320312 C 29.453125 81.320312 29.332031 80.734375 29.578125 80.152344 L 31.28125 75.292969 C 31.523438 74.707031 32.011719 74.125 32.496094 74.125 L 56.839844 74.125 C 57.328125 74.125 57.570312 74.707031 57.570312 75.484375 L 57.328125 80.152344 C 57.328125 80.929688 56.839844 81.511719 56.476562 81.511719 Z M 29.941406 81.320312 "/>
<path style=" stroke:none;fill-rule:nonzero;fill:rgb(0%,67.45098%,84.313725%);fill-opacity:1;" d="M 156.28125 42.042969 C 148.613281 45.15625 143.378906 47.488281 135.832031 50.597656 C 134.007812 51.378906 133.886719 51.570312 132.304688 48.65625 C 130.476562 45.351562 129.136719 43.210938 126.582031 41.265625 C 118.914062 35.238281 111.488281 36.988281 104.550781 44.183594 C 96.277344 52.738281 92.015625 65.375 92.136719 81.125 C 92.257812 96.679688 98.953125 109.511719 108.570312 111.648438 C 116.84375 113.398438 123.78125 108.734375 129.261719 98.816406 C 130.355469 96.679688 131.328125 94.34375 132.546875 91.625 C 128.164062 91.625 122.6875 91.625 109.054688 91.625 C 106.5 91.625 105.890625 89.097656 106.742188 85.789062 C 108.324219 79.761719 111.246094 69.652344 112.949219 64.597656 C 113.316406 63.433594 114.167969 61.488281 115.992188 61.488281 C 122.199219 61.488281 145.082031 61.488281 160.296875 61.488281 C 160.054688 66.738281 160.054688 71.988281 159.566406 77.234375 C 158.226562 91.234375 154.941406 104.066406 149.585938 115.34375 C 140.824219 133.8125 129.382812 145.285156 114.898438 148.394531 C 102.96875 150.921875 91.894531 147.230469 82.15625 135.5625 C 73.148438 124.675781 68.039062 110.289062 66.699219 92.402344 C 65.117188 71.207031 69.011719 52.15625 77.042969 35.433594 C 85.6875 17.351562 97.128906 5.882812 111.125 1.796875 C 122.566406 -1.507812 133.519531 0.632812 143.378906 11.324219 C 149.828125 18.128906 154.453125 27.460938 157.496094 38.738281 C 158.226562 40.488281 157.742188 41.460938 156.28125 42.042969 Z M 156.28125 42.042969 "/>
<path style=" stroke:none;fill-rule:nonzero;fill:rgb(0%,67.45098%,84.313725%);fill-opacity:1;" d="M 196.566406 149.5625 C 185.492188 149.171875 175.390625 144.117188 166.871094 132.453125 C 159.6875 122.539062 155.183594 109.898438 153.722656 94.929688 C 151.535156 72.957031 155.308594 53.515625 163.582031 36.210938 C 172.46875 17.546875 183.179688 7.824219 197.664062 3.742188 C 210.078125 0.242188 221.761719 2.1875 232.351562 13.660156 C 241.96875 24.15625 247.929688 38.351562 249.511719 57.015625 C 251.582031 83.261719 246.835938 104.648438 235.515625 122.925781 C 227.484375 135.953125 217.625 144.117188 206.304688 147.8125 C 203.019531 148.785156 199.730469 148.980469 196.566406 149.5625 Z M 225.535156 71.015625 C 225.414062 68.488281 225.414062 66.542969 225.171875 64.597656 C 222.980469 45.351562 211.902344 34.460938 200.339844 38.738281 C 189.019531 42.824219 181.71875 54.292969 179.039062 72.570312 C 176.851562 87.734375 181.476562 103.09375 190.238281 109.316406 C 196.933594 113.980469 203.628906 113.398438 210.078125 108.148438 C 219.691406 100.179688 224.925781 87.734375 225.535156 71.015625 Z M 225.535156 71.015625 "/>
</g>
</svg>
