<svg xmlns="http://www.w3.org/2000/svg" viewBox="0 0 1600 900">
  <defs>
    <linearGradient id="bg4" x1="0" y1="0" x2="1" y2="1">
      <stop offset="0%" stop-color="#0b1120"/>
      <stop offset="100%" stop-color="#111827"/>
    </linearGradient>
  </defs>
  <rect width="1600" height="900" fill="url(#bg4)"/>
  <g fill="#38bdf8" opacity="0.18">
    <circle cx="400" cy="250" r="140"/>
    <circle cx="800" cy="220" r="120"/>
    <circle cx="1200" cy="260" r="140"/>
    <circle cx="600" cy="620" r="160"/>
    <circle cx="1040" cy="640" r="180"/>
  </g>
  <g fill="#f8fafc" font-family="'SF Pro Display', 'Helvetica Neue', Arial, sans-serif" text-anchor="middle">
    <text x="800" y="150" font-size="54" font-weight="700">Why Go Powers Quicksilver</text>
  </g>
  <g font-family="'SF Pro Display', 'Helvetica Neue', Arial, sans-serif" fill="#e2e8f0" font-size="26" font-weight="500">
    <text x="400" y="260" text-anchor="middle">Native Concurrency</text>
    <text x="400" y="296" text-anchor="middle">Goroutines · Channels</text>
    <text x="800" y="230" text-anchor="middle">Readable Code</text>
    <text x="800" y="266" text-anchor="middle">Low complexity footprint</text>
    <text x="1200" y="270" text-anchor="middle">Single Binary Deploy</text>
    <text x="1200" y="306" text-anchor="middle">Static linking advantage</text>
    <text x="600" y="620" text-anchor="middle">ACID KV Store</text>
    <text x="600" y="656" text-anchor="middle">Embedded reliability</text>
    <text x="1040" y="640" text-anchor="middle">Go Ecosystem</text>
    <text x="1040" y="676" text-anchor="middle">Tooling · Libraries</text>
  </g>
  <g fill="none" stroke="#38bdf8" stroke-width="3" opacity="0.5">
    <path d="M400 340 Q800 420 1200 340"/>
    <path d="M400 340 Q600 500 600 580"/>
    <path d="M1200 340 Q1040 520 1040 620"/>
    <path d="M800 340 Q800 520 800 620"/>
  </g>
</svg>
