<svg xmlns="http://www.w3.org/2000/svg" viewBox="0 0 1600 900">
  <defs>
    <linearGradient id="bg2" x1="0" y1="0" x2="1" y2="1">
      <stop offset="0%" stop-color="#0b1120"/>
      <stop offset="100%" stop-color="#111827"/>
    </linearGradient>
  </defs>
  <rect width="1600" height="900" fill="url(#bg2)"/>
  <g fill="none" stroke="#38bdf8" stroke-width="3" opacity="0.8">
    <rect x="200" y="200" width="520" height="180" rx="24"/>
    <rect x="880" y="200" width="520" height="180" rx="24"/>
    <rect x="200" y="520" width="520" height="180" rx="24"/>
    <rect x="880" y="520" width="520" height="180" rx="24"/>
    <line x1="460" y1="380" x2="460" y2="520" stroke-dasharray="16 12"/>
    <line x1="1140" y1="380" x2="1140" y2="520" stroke-dasharray="16 12"/>
    <line x1="720" y1="290" x2="880" y2="290" marker-end="url(#arrow)"/>
    <line x1="720" y1="610" x2="880" y2="610" marker-end="url(#arrow)"/>
  </g>
  <defs>
    <marker id="arrow" markerWidth="10" markerHeight="10" refX="5" refY="5" orient="auto">
      <polygon points="0,0 10,5 0,10" fill="#38bdf8"/>
    </marker>
  </defs>
  <g fill="#f8fafc" font-family="'SF Pro Display', 'Helvetica Neue', Arial, sans-serif">
    <text x="800" y="130" font-size="54" font-weight="700" text-anchor="middle">Consistency Pressure Across the Network</text>
    <text x="460" y="280" font-size="28" text-anchor="middle">Customer Actions</text>
    <text x="460" y="320" font-size="22" text-anchor="middle">DNS · Security · Feature Flags</text>
    <text x="1140" y="280" font-size="28" text-anchor="middle">Global Propagation</text>
    <text x="1140" y="320" font-size="22" text-anchor="middle">Seconds Matter</text>
    <text x="460" y="600" font-size="28" text-anchor="middle">Legacy Stack</text>
    <text x="460" y="640" font-size="22" text-anchor="middle">Inconsistency Risk</text>
    <text x="1140" y="600" font-size="28" text-anchor="middle">Quicksilver Target</text>
    <text x="1140" y="640" font-size="22" text-anchor="middle">Identical Config State</text>
  </g>
</svg>
